<svg width="64" height="64" viewBox="0 0 64 64" fill="none" xmlns="http://www.w3.org/2000/svg">
<path d="M32 2.75C26.2149 2.75 20.5597 4.46548 15.7496 7.67951C10.9394 10.8935 7.1904 15.4618 4.97654 20.8065C2.76267 26.1512 2.18343 32.0324 3.31204 37.7064C4.44066 43.3803 7.22645 48.5922 11.3171 52.6829C15.4078 56.7736 20.6197 59.5594 26.2936 60.688C31.9676 61.8166 37.8488 61.2373 43.1935 59.0235C48.5382 56.8096 53.1065 53.0606 56.3205 48.2504C59.5345 43.4403 61.25 37.7851 61.25 32C61.2421 24.2449 58.1578 16.8096 52.6741 11.3259C47.1904 5.84218 39.7552 2.75794 32 2.75V2.75ZM32 58.75C26.7094 58.75 21.5375 57.1811 17.1385 54.2418C12.7395 51.3025 9.31088 47.1247 7.28624 42.2368C5.26159 37.3489 4.73185 31.9703 5.76401 26.7813C6.79616 21.5923 9.34385 16.8259 13.0849 13.0849C16.826 9.34384 21.5924 6.79615 26.7813 5.76399C31.9703 4.73184 37.3489 5.26158 42.2368 7.28622C47.1247 9.31087 51.3025 12.7395 54.2418 17.1385C57.1812 21.5375 58.75 26.7093 58.75 32C58.7421 39.0921 55.9212 45.8915 50.9063 50.9063C45.8915 55.9212 39.0921 58.7421 32 58.75V58.75Z" fill="#20bcc7" id="id_107"></path>
<path d="M51.6999 28.3301L35.6999 12.3301C35.2131 11.842 34.6349 11.4549 33.9983 11.1907C33.3616 10.9265 32.6792 10.7905 31.9899 10.7905C31.3006 10.7905 30.6181 10.9265 29.9815 11.1907C29.3449 11.4549 28.7667 11.842 28.2799 12.3301L12.2799 28.3301C11.2959 29.3153 10.7437 30.6511 10.7446 32.0436C10.7451 32.7331 10.8814 33.4157 11.1456 34.0525C11.4099 34.6893 11.797 35.2679 12.2849 35.7551C12.7728 36.2423 13.3518 36.6286 13.989 36.892C14.6261 37.1554 15.309 37.2908 15.9984 37.2903C17.3909 37.2894 18.7259 36.7353 19.7099 35.7501L22.0399 33.4201C22.4251 33.0367 22.9152 32.776 23.4483 32.671C23.9815 32.5659 24.5339 32.6212 25.0357 32.8299C25.5375 33.0385 25.9662 33.3911 26.2677 33.8432C26.5693 34.2953 26.7301 34.8266 26.7299 35.3701V48.0001C26.7299 49.3924 27.283 50.7278 28.2676 51.7124C29.2522 52.6969 30.5875 53.2501 31.9799 53.2501C33.3723 53.2501 34.7076 52.6969 35.6922 51.7124C36.6768 50.7278 37.2299 49.3924 37.2299 48.0001V35.3701C37.2297 34.8266 37.3905 34.2953 37.6921 33.8432C37.9936 33.3911 38.4223 33.0385 38.9241 32.8299C39.4259 32.6212 39.9783 32.5659 40.5114 32.671C41.0446 32.776 41.5347 33.0367 41.9199 33.4201L44.2499 35.7501C45.2339 36.7353 46.5689 37.2894 47.9614 37.2903C49.3538 37.2913 50.6896 36.739 51.6749 35.7551C52.6602 34.7711 53.2142 33.436 53.2152 32.0436C53.2161 30.6511 52.6639 29.3153 51.6799 28.3301H51.6999ZM49.9299 34.0001C49.4036 34.5114 48.6987 34.7974 47.9649 34.7974C47.2311 34.7974 46.5262 34.5114 45.9999 34.0001L43.6699 31.6701C42.9373 30.9223 41.9979 30.4106 40.9723 30.2007C39.9467 29.9908 38.8817 30.0923 37.9143 30.4922C36.9468 30.8921 36.121 31.5721 35.5428 32.4448C34.9647 33.3176 34.6607 34.3432 34.6699 35.3901V48.0001C34.6699 48.7294 34.3802 49.4289 33.8644 49.9446C33.3487 50.4603 32.6492 50.7501 31.9199 50.7501C31.1906 50.7501 30.4911 50.4603 29.9754 49.9446C29.4596 49.4289 29.1699 48.7294 29.1699 48.0001V35.3701C29.1891 34.3369 28.897 33.3219 28.3316 32.457C27.7663 31.592 26.9539 30.9171 25.9999 30.5201C25.3669 30.2511 24.6876 30.1085 23.9999 30.1001C22.6163 30.1086 21.2927 30.6661 20.3199 31.6501L17.9999 34.0001C17.4841 34.5159 16.7844 34.8057 16.0549 34.8057C15.3254 34.8057 14.6257 34.5159 14.1099 34.0001C13.5941 33.4842 13.3043 32.7846 13.3043 32.0551C13.3043 31.3255 13.5941 30.6259 14.1099 30.1101L30.1099 14.1101C30.6314 13.6089 31.3266 13.3291 32.0499 13.3291C32.7732 13.3291 33.4684 13.6089 33.9899 14.1101L49.9899 30.1101C50.4956 30.635 50.7731 31.3386 50.7618 32.0674C50.7506 32.7962 50.4515 33.491 49.9299 34.0001Z" fill="#27cdd9" id="id_108"></path>
</svg>